<?xml version="1.0" encoding="UTF-8" standalone="no"?>
<!-- Created with Inkscape (http://www.inkscape.org/) -->

<svg
   xmlns:dc="http://purl.org/dc/elements/1.1/"
   xmlns:cc="http://creativecommons.org/ns#"
   xmlns:rdf="http://www.w3.org/1999/02/22-rdf-syntax-ns#"
   xmlns:svg="http://www.w3.org/2000/svg"
   xmlns="http://www.w3.org/2000/svg"
   xmlns:sodipodi="http://sodipodi.sourceforge.net/DTD/sodipodi-0.dtd"
   xmlns:inkscape="http://www.inkscape.org/namespaces/inkscape"
   width="190.02901"
   height="109.64632"
   id="svg8417"
   version="1.1"
   inkscape:version="0.91 r13725"
   sodipodi:docname="multiplataforma.svg">
  <defs
     id="defs8419" />
  <sodipodi:namedview
     id="base"
     pagecolor="#ffffff"
     bordercolor="#666666"
     borderopacity="1.0"
     inkscape:pageopacity="0.0"
     inkscape:pageshadow="2"
     inkscape:zoom="5.6568542"
     inkscape:cx="96.721881"
     inkscape:cy="60.75247"
     inkscape:document-units="px"
     inkscape:current-layer="layer1"
     showgrid="false"
     fit-margin-top="0"
     fit-margin-left="0"
     fit-margin-right="0"
     fit-margin-bottom="0"
     inkscape:window-width="1680"
     inkscape:window-height="986"
     inkscape:window-x="0"
     inkscape:window-y="27"
     inkscape:window-maximized="1"
     inkscape:object-paths="true"
     inkscape:snap-intersection-paths="true"
     inkscape:object-nodes="true" />
  <metadata
     id="metadata8422">
    <rdf:RDF>
      <cc:Work
         rdf:about="">
        <dc:format>image/svg+xml</dc:format>
        <dc:type
           rdf:resource="http://purl.org/dc/dcmitype/StillImage" />
        <dc:title />
      </cc:Work>
    </rdf:RDF>
  </metadata>
  <g
     inkscape:label="Capa 1"
     inkscape:groupmode="layer"
     id="layer1"
     transform="translate(-624.8592,-561.17542)">
    <rect
       style="color:#000000;clip-rule:nonzero;display:inline;overflow:visible;visibility:visible;opacity:1;isolation:auto;mix-blend-mode:normal;color-interpolation:sRGB;color-interpolation-filters:linearRGB;solid-color:#000000;solid-opacity:1;fill:#ffffff;fill-opacity:1;fill-rule:nonzero;stroke:none;stroke-width:2;stroke-linecap:butt;stroke-linejoin:miter;stroke-miterlimit:4;stroke-dasharray:none;stroke-dashoffset:0;stroke-opacity:1;marker:none;color-rendering:auto;image-rendering:auto;shape-rendering:auto;text-rendering:auto;enable-background:accumulate"
       id="rect4217"
       width="134.54883"
       height="90.218758"
       x="652.59943"
       y="567.13831" />
    <g
       id="g4193"
       transform="matrix(0.73203607,0,0,0.73203607,137.52648,236.62471)"
       style="fill:#78a7b7" />
    <path
       style="font-style:normal;font-weight:normal;font-size:medium;line-height:125%;font-family:sans-serif;letter-spacing:2.74514246px;word-spacing:-0.08052397px;fill:#78a7b7;fill-opacity:1;stroke:none;stroke-width:1px;stroke-linecap:butt;stroke-linejoin:miter;stroke-opacity:1"
       d="M 96.3125 28.962891 C 95.548553 28.962891 94.936889 29.087171 94.478516 29.333984 C 93.538269 29.839371 92.914955 30.45686 92.609375 31.185547 C 92.303768 31.902487 92.163967 32.789883 92.1875 33.847656 C 92.234513 36.17477 92.32771 37.99616 92.46875 39.3125 C 92.304203 39.92366 91.576036 41.069307 90.283203 42.75 C 90.048136 42.98506 89.81901 43.301565 89.595703 43.701172 C 89.372396 44.100772 89.195693 44.46001 89.066406 44.777344 C 88.937126 45.094677 88.760423 45.552937 88.537109 46.152344 C 88.325556 46.75175 88.174105 47.175062 88.080078 47.421875 C 87.997811 47.633435 87.867706 47.880036 87.691406 48.162109 C 87.515113 48.444183 87.373358 48.719914 87.267578 48.990234 C 87.161785 49.260554 87.10353 49.567363 87.091797 49.908203 C 87.080064 50.16677 87.091686 50.390072 87.126953 50.578125 C 87.173966 50.860198 87.263291 50.947577 87.392578 50.841797 C 87.921465 50.44219 88.585552 50.677148 89.384766 51.546875 C 89.948912 52.158035 90.941161 53.579413 92.363281 55.8125 C 92.480815 56.0123 92.597317 56.223952 92.714844 56.447266 C 92.832377 56.682326 92.945008 56.989134 93.050781 57.365234 C 93.156588 57.753081 93.197361 58.098717 93.173828 58.404297 C 93.162075 58.709877 93.028098 58.99338 92.769531 59.251953 C 92.522718 59.51052 92.146005 59.673627 91.640625 59.744141 C 91.370298 59.779407 91.04019 59.756095 90.652344 59.673828 C 90.276244 59.591555 89.794685 59.457585 89.207031 59.269531 C 88.619378 59.081485 88.184417 58.951379 87.902344 58.880859 C 87.490984 58.786839 86.904572 58.662559 86.140625 58.509766 C 85.388425 58.368732 84.893263 58.263879 84.658203 58.193359 C 84.258603 58.087579 84.041126 57.934175 84.005859 57.734375 C 83.970599 57.569828 84.0541 57.288272 84.253906 56.888672 C 84.453706 56.489065 84.552734 56.201684 84.552734 56.025391 C 84.564534 55.896104 84.55869 55.766005 84.535156 55.636719 C 84.51169 55.507439 84.482532 55.408411 84.447266 55.337891 C 84.423759 55.267371 84.377154 55.160565 84.306641 55.019531 C 84.236147 54.878491 84.189549 54.773645 84.166016 54.703125 C 83.954429 54.209498 83.925338 53.873559 84.078125 53.697266 C 84.183905 53.544466 84.436338 53.486218 84.835938 53.521484 C 85.43535 53.580251 85.922735 53.492873 86.298828 53.257812 C 86.921741 52.86996 87.110095 52.246645 86.863281 51.388672 C 86.863281 51.788272 86.791424 52.087303 86.650391 52.287109 C 86.509351 52.486909 86.26275 52.692744 85.910156 52.904297 C 85.710356 53.021804 85.358902 53.091701 84.853516 53.115234 C 84.348136 53.138741 84.012196 53.222248 83.847656 53.363281 C 83.730103 53.469061 83.66603 53.626337 83.654297 53.837891 C 83.654297 54.049451 83.683387 54.266928 83.742188 54.490234 C 83.800987 54.701788 83.859235 54.950349 83.917969 55.232422 C 83.976702 55.514495 84.000015 55.749447 83.988281 55.9375 C 83.976528 56.06678 83.871675 56.383285 83.671875 56.888672 C 83.472075 57.405805 83.431301 57.799993 83.548828 58.070312 C 83.607595 58.199599 83.706616 58.310277 83.847656 58.404297 C 83.98869 58.510077 84.182873 58.599402 84.429688 58.669922 C 84.68826 58.740429 84.923212 58.792858 85.134766 58.828125 C 85.346319 58.875105 85.639525 58.927528 86.015625 58.986328 C 86.391725 59.056861 86.692709 59.115109 86.916016 59.162109 C 87.668209 59.314896 88.526481 59.569282 89.490234 59.921875 C 90.453988 60.274488 91.106426 60.455064 91.447266 60.466797 C 91.776352 60.47855 92.087033 60.408653 92.380859 60.255859 C 92.686439 60.114826 92.944697 59.949772 93.15625 59.761719 C 93.36781 59.573672 93.680444 59.398915 94.091797 59.234375 C 94.51491 59.069808 94.98482 58.980483 95.501953 58.96875 C 95.737013 58.957017 96.076816 58.939549 96.523438 58.916016 C 96.97005 58.904282 97.305984 58.898437 97.529297 58.898438 C 98.540057 58.898438 99.303173 58.904282 99.820312 58.916016 C 100.1729 58.927769 100.44863 58.980192 100.64844 59.074219 C 100.8482 59.179999 100.97831 59.298454 101.03711 59.427734 C 101.09588 59.557021 101.18908 59.702648 101.31836 59.867188 C 101.4594 60.043487 101.6361 60.185242 101.84766 60.291016 C 102.29428 60.502562 102.81856 60.584109 103.41797 60.537109 C 104.01738 60.501849 104.41543 60.391178 104.61523 60.203125 C 104.94432 59.885792 105.38511 59.509079 105.9375 59.074219 C 106.50165 58.639352 107.00846 58.311197 107.45508 58.087891 C 107.5491 58.040877 107.70638 57.963195 107.92969 57.857422 C 108.15299 57.751642 108.34135 57.658445 108.49414 57.576172 C 108.64693 57.505652 108.82946 57.412449 109.04102 57.294922 C 109.26433 57.177389 109.44103 57.064758 109.57031 56.958984 C 109.71135 56.864958 109.85115 56.754287 109.99219 56.625 C 110.13322 56.49572 110.22255 56.365615 110.25781 56.236328 C 110.30481 56.107048 110.32228 55.976943 110.31055 55.847656 C 110.29879 55.706616 110.2289 55.566815 110.09961 55.425781 C 109.97032 55.272988 109.78779 55.125408 109.55273 54.984375 C 109.51747 54.960868 109.41649 54.908445 109.25195 54.826172 C 109.09916 54.732119 108.97683 54.65639 108.88281 54.597656 C 108.78879 54.527136 108.66451 54.414512 108.51172 54.261719 C 108.35893 54.097179 108.23466 53.926293 108.14062 53.75 C 108.05836 53.5737 107.9768 53.338749 107.89453 53.044922 C 107.81224 52.739342 107.76564 52.405362 107.75391 52.041016 C 107.58939 52.182056 107.49424 52.463612 107.4707 52.886719 C 107.45895 53.298079 107.54828 53.721383 107.73633 54.15625 C 107.93613 54.59111 108.22934 54.872666 108.61719 55.001953 C 108.99329 55.131233 109.29427 55.272988 109.51758 55.425781 C 109.75267 55.566815 109.8983 55.731869 109.95703 55.919922 C 110.02755 56.107969 109.92271 56.306018 109.64062 56.517578 C 109.35855 56.740885 108.90612 56.958369 108.2832 57.169922 C 107.42523 57.463749 106.81357 57.712309 106.44922 57.912109 C 106.09663 58.123669 105.57429 58.515897 104.88086 59.091797 C 104.41074 59.479617 103.90975 59.685451 103.38086 59.708984 C 102.85197 59.744244 102.42284 59.55006 102.09375 59.126953 C 101.76466 58.715593 101.65982 58.129181 101.77734 57.365234 C 102.00068 55.896094 101.99483 54.750448 101.75977 53.927734 C 101.57172 53.281314 101.53094 52.710424 101.63672 52.216797 C 101.74249 51.72317 101.90755 51.435789 102.13086 51.353516 C 102.35417 51.271242 102.59495 51.447946 102.85352 51.882812 C 102.87702 51.941572 102.92945 52.058075 103.01172 52.234375 C 103.094 52.398915 103.15808 52.517371 103.20508 52.587891 C 103.26384 52.658411 103.34539 52.751607 103.45117 52.869141 C 103.55695 52.974927 103.68705 53.050656 103.83984 53.097656 C 104.00438 53.144723 104.19274 53.173814 104.4043 53.185547 C 104.8039 53.1973 105.16314 53.115753 105.48047 52.939453 C 105.7978 52.76316 106.03275 52.568975 106.18555 52.357422 C 106.35009 52.134109 106.50736 51.922456 106.66016 51.722656 C 106.8247 51.522883 106.96645 51.412205 107.08398 51.388672 C 107.21326 51.365165 107.32977 51.23506 107.43555 51 C 107.54131 50.764933 107.61317 50.442603 107.64844 50.03125 C 107.68372 49.608137 107.65457 49.109103 107.56055 48.533203 C 107.38425 47.510683 107.03084 46.386383 106.50195 45.164062 C 105.98482 43.941742 105.40228 42.984442 104.75586 42.291016 C 103.59231 41.056942 102.81172 39.775366 102.41211 38.447266 C 102.00072 37.048652 101.82401 35.792328 101.88281 34.675781 C 101.94158 33.876575 101.76488 33.012478 101.35352 32.083984 C 100.95392 31.143738 100.41993 30.42722 99.75 29.933594 C 99.326887 29.61626 98.804554 29.375484 98.181641 29.210938 C 97.558727 29.034664 96.935413 28.951157 96.3125 28.962891 z M 141.57422 28.962891 C 139.50567 29.444764 138.03574 30.314686 137.16602 31.572266 C 136.28454 32.841599 135.82628 34.352309 135.79102 36.103516 C 136.57848 36.033002 137.19014 35.932021 137.625 35.802734 C 138.25967 35.591181 138.89463 35.169823 139.5293 34.535156 C 140.26974 33.79471 140.81538 32.983044 141.16797 32.101562 C 141.50881 31.220083 141.67969 30.420065 141.67969 29.703125 C 141.67969 29.656118 141.67384 29.597864 141.66211 29.527344 L 141.66211 29.351562 C 141.65038 29.316302 141.63291 29.252223 141.60938 29.158203 C 141.59758 29.064183 141.58595 28.998157 141.57422 28.962891 z M 98.798828 30.761719 C 98.904601 30.761719 99.044403 30.849097 99.220703 31.025391 C 99.255963 31.048911 99.308386 31.083859 99.378906 31.130859 C 99.461146 31.177866 99.515529 31.220593 99.539062 31.255859 C 99.57433 31.291126 99.591797 31.320217 99.591797 31.34375 C 99.56829 31.40249 99.515867 31.443264 99.433594 31.466797 C 99.351327 31.49033 99.261995 31.501953 99.167969 31.501953 C 99.073922 31.501953 99.021499 31.507798 99.009766 31.519531 C 98.915746 31.554791 98.828367 31.607214 98.746094 31.677734 C 98.663807 31.748248 98.597781 31.802624 98.550781 31.837891 C 98.503761 31.873157 98.457156 31.873157 98.410156 31.837891 C 98.363156 31.767397 98.345689 31.718847 98.357422 31.695312 C 98.369142 31.660052 98.404091 31.607629 98.462891 31.537109 C 98.521671 31.454829 98.556626 31.39075 98.568359 31.34375 C 98.591893 31.27323 98.591893 31.201379 98.568359 31.130859 C 98.556559 31.048593 98.562404 30.972864 98.585938 30.902344 C 98.621196 30.82005 98.693048 30.773452 98.798828 30.761719 z M 70.072266 31.220703 L 54.083984 33.423828 L 54.083984 45.21875 L 70.072266 45.21875 L 70.072266 31.220703 z M 98.09375 33.441406 C 98.281803 33.476633 98.439079 33.523231 98.568359 33.582031 C 98.697646 33.629045 98.833576 33.718376 98.974609 33.847656 C 99.127403 33.96519 99.249723 34.13994 99.34375 34.375 C 99.449557 34.61006 99.533064 34.90522 99.591797 35.257812 L 99.591797 35.910156 C 99.591797 36.286263 99.514115 36.497922 99.361328 36.544922 C 99.114508 36.627195 98.939758 36.627195 98.833984 36.544922 C 98.728231 36.450902 98.739854 36.291673 98.869141 36.068359 C 98.986681 35.774533 98.963368 35.432769 98.798828 35.044922 C 98.634281 34.657062 98.333297 34.482311 97.898438 34.517578 C 97.604611 34.529331 97.392959 34.686608 97.263672 34.992188 C 97.134385 35.297767 97.08778 35.598751 97.123047 35.892578 C 97.1583 36.186425 97.22238 36.337876 97.316406 36.349609 C 97.386926 36.361363 97.592754 36.456519 97.933594 36.632812 C 98.286187 36.8091 98.552222 36.913952 98.728516 36.949219 C 99.186849 37.043245 99.445106 37.190818 99.503906 37.390625 C 99.57444 37.590425 99.551127 37.883631 99.433594 38.271484 C 99.31608 38.647578 99.279172 38.960211 99.326172 39.207031 C 99.373185 39.465598 99.462517 39.700556 99.591797 39.912109 C 99.721084 40.123663 99.85506 40.315886 99.996094 40.492188 C 100.14889 40.668481 100.32559 40.998589 100.52539 41.480469 C 100.72519 41.962342 100.90772 42.568182 101.07227 43.296875 L 101.19531 43.419922 C 101.27758 43.490442 101.35526 43.577814 101.42578 43.683594 C 101.50805 43.789367 101.60126 43.936947 101.70703 44.125 C 101.81281 44.301293 101.92544 44.565375 102.04297 44.917969 C 102.17225 45.270562 102.28875 45.676399 102.39453 46.134766 C 102.52382 46.675412 102.58789 47.304551 102.58789 48.021484 C 102.59964 48.738424 102.6482 49.231633 102.73047 49.501953 C 102.8245 49.760506 103.05362 49.865359 103.41797 49.818359 C 103.87634 49.794853 104.16954 49.548245 104.29883 49.078125 C 104.68667 47.714765 104.36822 46.081728 103.3457 44.177734 C 102.95785 43.437288 102.62387 42.949904 102.3418 42.714844 C 102.75316 42.949904 103.17647 43.390689 103.61133 44.037109 C 104.04619 44.683529 104.32193 45.289369 104.43945 45.853516 C 104.45119 45.912282 104.48034 46.069558 104.52734 46.328125 C 104.58614 46.574952 104.61523 46.722531 104.61523 46.769531 C 104.62697 46.804791 104.65028 46.921294 104.68555 47.121094 C 104.73255 47.32086 104.75781 47.450966 104.75781 47.509766 C 104.75781 47.568532 104.76366 47.686981 104.77539 47.863281 C 104.78719 48.027821 104.78135 48.155973 104.75781 48.25 C 104.74608 48.34402 104.72666 48.474125 104.70312 48.638672 C 104.69133 48.791459 104.66223 48.94291 104.61523 49.095703 C 104.57996 49.236736 104.53919 49.395966 104.49219 49.572266 C 105.13861 49.854339 105.46289 50.100947 105.46289 50.3125 C 105.21608 50.112733 104.86266 49.984581 104.4043 49.925781 C 103.94592 49.855261 103.51679 49.913509 103.11719 50.101562 C 102.72932 50.289609 102.52931 50.60029 102.51758 51.035156 C 102.09446 51.035156 101.79543 51.141962 101.61914 51.353516 C 101.36055 51.659096 101.22462 52.076582 101.21289 52.605469 C 101.20114 53.122602 101.24192 53.69154 101.33594 54.314453 C 101.44174 54.925613 101.48447 55.354743 101.46094 55.601562 C 101.43743 55.977657 101.35392 56.50582 101.21289 57.1875 C 101.08361 57.86918 101.00206 58.321615 100.9668 58.544922 C 100.71999 58.533169 100.57824 58.439965 100.54297 58.263672 C 100.50771 58.099125 100.54266 57.881648 100.64844 57.611328 C 100.90702 56.823875 101.04295 56.284061 101.05469 55.990234 C 101.07819 55.449588 101.01995 55.142779 100.87891 55.072266 C 100.74963 54.978239 100.54962 55.154942 100.2793 55.601562 C 99.762154 56.447782 98.721363 56.958472 97.158203 57.134766 C 95.747836 57.322819 94.773062 57.11116 94.232422 56.5 C 94.114889 56.417733 93.996433 56.400266 93.878906 56.447266 C 93.76138 56.505992 93.685657 56.5662 93.650391 56.625 C 93.638657 56.64852 93.65028 56.683469 93.685547 56.730469 L 93.84375 56.941406 C 93.92603 57.035426 93.992063 57.12863 94.039062 57.222656 C 94.497436 58.021863 94.454703 58.56363 93.914062 58.845703 C 93.914062 58.305063 93.873289 57.887577 93.791016 57.59375 C 93.708742 57.311677 93.543688 56.995171 93.296875 56.642578 C 93.050062 56.301738 92.881136 56.041528 92.787109 55.865234 C 93.139703 55.829974 93.403785 55.695996 93.580078 55.460938 C 93.768158 55.225878 93.849705 54.973452 93.826172 54.703125 C 93.814419 54.432805 93.715397 54.209496 93.527344 54.033203 C 93.42157 53.927423 92.873979 53.480813 91.886719 52.693359 C 90.899459 51.894153 90.289747 51.358217 90.054688 51.087891 C 90.007673 51.040884 89.865919 50.924381 89.630859 50.736328 C 89.395833 50.548281 89.248253 50.383226 89.189453 50.242188 C 88.648813 49.055128 88.590565 48.080353 89.013672 47.316406 L 89.083984 47.228516 C 89.142718 47.216762 89.148563 47.321615 89.101562 47.544922 C 89.03103 47.874009 89.007717 48.202163 89.03125 48.53125 C 89.078263 49.271697 89.289916 49.825113 89.666016 50.189453 C 89.912829 50.43626 90.083708 50.418792 90.177734 50.136719 C 90.248268 50.042692 90.277358 49.69511 90.265625 49.095703 C 90.265625 48.496296 90.277248 48.092419 90.300781 47.880859 C 90.394808 47.210939 90.670533 46.381791 91.128906 45.394531 C 91.599026 44.407271 91.969914 43.877161 92.240234 43.806641 C 92.028681 43.465807 91.958777 43.096872 92.029297 42.697266 C 92.111564 42.297659 92.23389 41.955901 92.398438 41.673828 C 92.574731 41.391755 92.751434 41.069425 92.927734 40.705078 C 93.104028 40.328978 93.191406 39.993045 93.191406 39.699219 C 93.191406 39.616959 93.197251 39.558704 93.208984 39.523438 C 93.244244 39.417656 93.391824 39.547763 93.650391 39.912109 C 94.144024 40.640803 94.514905 41.069939 94.761719 41.199219 C 95.020285 41.340279 95.307667 41.334434 95.625 41.181641 C 95.942333 41.028854 96.330697 40.774468 96.789062 40.421875 C 97.25919 40.069282 97.657241 39.811024 97.986328 39.646484 C 98.021581 39.634751 98.075964 39.611439 98.146484 39.576172 C 98.228751 39.529105 98.286999 39.500015 98.322266 39.488281 C 98.369246 39.464815 98.421669 39.435657 98.480469 39.400391 C 98.550975 39.365124 98.603405 39.336033 98.638672 39.3125 C 98.673925 39.289033 98.710827 39.265721 98.746094 39.242188 C 98.78136 39.206986 98.804673 39.175877 98.816406 39.152344 C 98.82814 39.117144 98.833984 39.087986 98.833984 39.064453 C 98.810478 38.9587 98.756101 38.894627 98.673828 38.871094 C 98.603308 38.84756 98.50428 38.865028 98.375 38.923828 C 98.245713 38.970841 98.098134 39.040739 97.933594 39.134766 C 97.7808 39.217032 97.60605 39.318014 97.40625 39.435547 C 97.218203 39.541327 97.024025 39.640355 96.824219 39.734375 C 96.624419 39.828402 96.41276 39.911902 96.189453 39.982422 C 95.96614 40.052962 95.754488 40.093735 95.554688 40.105469 C 95.06106 40.117222 94.666874 39.987124 94.373047 39.716797 C 94.184974 39.54049 94.085952 39.429814 94.074219 39.382812 C 94.062465 39.335746 94.114889 39.324123 94.232422 39.347656 C 94.867089 39.42999 95.331173 39.441613 95.625 39.382812 C 95.93058 39.3358 96.342242 39.199869 96.859375 38.976562 C 96.965155 38.92955 97.229237 38.818871 97.652344 38.642578 C 98.08721 38.454525 98.42119 38.32442 98.65625 38.253906 C 98.797303 38.218646 98.892453 38.166223 98.939453 38.095703 C 98.998253 38.013463 99.015721 37.943566 98.992188 37.884766 C 98.980407 37.814259 98.945452 37.759876 98.886719 37.724609 C 98.757432 37.654089 98.638983 37.702648 98.533203 37.867188 C 98.474443 37.972966 98.352117 38.077814 98.164062 38.183594 C 97.976017 38.27758 97.799312 38.353309 97.634766 38.412109 C 97.481979 38.459123 97.28197 38.519324 97.035156 38.589844 C 96.78837 38.660384 96.65244 38.701157 96.628906 38.712891 C 95.982486 38.912717 95.384425 39.000096 94.832031 38.976562 C 94.573458 38.964844 94.361806 38.929894 94.197266 38.871094 C 94.044446 38.800574 93.93764 38.724845 93.878906 38.642578 C 93.82014 38.548551 93.726943 38.435921 93.597656 38.306641 C 93.468376 38.165601 93.320797 38.049105 93.15625 37.955078 C 93.038697 37.896311 92.992092 37.789505 93.015625 37.636719 C 93.050878 37.483925 93.144082 37.326649 93.296875 37.162109 C 93.308628 37.150356 93.427084 37.078505 93.650391 36.949219 C 93.885451 36.808185 94.050505 36.668384 94.144531 36.527344 C 94.250311 36.362804 94.43284 36.191918 94.691406 36.015625 C 94.70314 35.968612 94.708984 35.838513 94.708984 35.626953 C 94.720738 35.4154 94.666361 35.186266 94.548828 34.939453 C 94.431301 34.69264 94.274025 34.570312 94.074219 34.570312 C 93.792145 34.55856 93.592136 34.640113 93.474609 34.816406 C 93.357096 34.992706 93.30272 35.210183 93.314453 35.46875 C 93.326206 35.692057 93.380583 35.892066 93.474609 36.068359 C 93.580383 36.232906 93.673586 36.314453 93.755859 36.314453 C 93.885133 36.3027 93.925906 36.349298 93.878906 36.455078 C 93.808386 36.584351 93.71519 36.667858 93.597656 36.703125 C 93.51539 36.726632 93.420233 36.650903 93.314453 36.474609 C 93.220393 36.286556 93.14467 36.063254 93.085938 35.804688 C 93.038937 35.546121 93.02147 35.328644 93.033203 35.152344 C 93.05671 34.788004 93.149906 34.440415 93.314453 34.111328 C 93.490746 33.770508 93.739307 33.605454 94.056641 33.617188 C 94.385727 33.62894 94.649803 33.82895 94.849609 34.216797 C 95.049389 34.60465 95.142593 35.13476 95.130859 35.804688 C 95.166119 35.886954 95.255451 35.916111 95.396484 35.892578 C 95.549278 35.869045 95.741503 35.869045 95.976562 35.892578 C 96.223377 35.904331 96.400079 35.962586 96.505859 36.068359 C 96.517593 36.068359 96.523437 35.979028 96.523438 35.802734 C 96.311884 34.321848 96.836177 33.535433 98.09375 33.441406 z M 52.761719 33.599609 L 40.738281 35.257812 L 40.738281 45.21875 L 52.761719 45.21875 L 52.761719 33.599609 z M 98.199219 34.833984 C 98.234479 34.822251 98.286902 34.839719 98.357422 34.886719 C 98.427969 34.933732 98.492048 35.009454 98.550781 35.115234 C 98.609581 35.209254 98.638672 35.321885 98.638672 35.451172 L 98.603516 35.503906 C 98.509496 35.562706 98.462891 35.574329 98.462891 35.539062 C 98.415877 35.221716 98.311031 35.039188 98.146484 34.992188 C 98.123018 34.980387 98.099705 34.968765 98.076172 34.957031 C 97.993905 34.886491 98.034679 34.845718 98.199219 34.833984 z M 94.144531 34.939453 C 94.215018 34.96296 94.279091 35.052291 94.337891 35.205078 C 94.408424 35.357871 94.425892 35.532622 94.390625 35.732422 C 94.390625 35.767689 94.373157 35.785156 94.337891 35.785156 C 94.208597 35.785156 94.161999 35.668654 94.197266 35.433594 C 94.232526 35.257294 94.191752 35.169922 94.074219 35.169922 C 94.038952 35.158142 94.007908 35.121233 93.984375 35.0625 C 93.984375 34.956693 94.038751 34.91592 94.144531 34.939453 z M 141.87305 35.591797 C 141.03858 35.591797 140.02303 35.7918 138.82422 36.191406 C 137.67241 36.591013 136.83162 36.791016 136.30273 36.791016 C 135.90313 36.791016 135.09146 36.614312 133.86914 36.261719 C 132.63507 35.909125 131.59622 35.732422 130.75 35.732422 C 128.72847 35.732422 127.05853 36.579038 125.74219 38.271484 C 124.41409 39.987431 123.75 42.185534 123.75 44.865234 C 123.75 47.709481 124.6141 50.664869 126.3418 53.732422 C 128.093 56.776469 129.86197 58.298828 131.64844 58.298828 C 132.24784 58.298828 133.02261 58.098825 133.97461 57.699219 C 134.92661 57.311365 135.76158 57.117188 136.47852 57.117188 C 137.24246 57.117188 138.12986 57.305541 139.14062 57.681641 C 140.21015 58.057741 141.03348 58.246094 141.60938 58.246094 C 143.11377 58.246094 144.62448 57.094622 146.14062 54.791016 C 147.12789 53.321882 147.85022 51.851946 148.30859 50.382812 C 147.26257 50.06548 146.3344 49.325663 145.52344 48.162109 C 144.71248 46.998556 144.30664 45.687855 144.30664 44.230469 C 144.30664 42.902375 144.68918 41.686818 145.45312 40.582031 C 145.86448 39.982618 146.5344 39.289406 147.46289 38.501953 C 146.85173 37.74976 146.24007 37.161395 145.62891 36.738281 C 144.52411 35.974328 143.27166 35.591797 141.87305 35.591797 z M 96.417969 36.173828 C 96.323944 36.167945 96.207443 36.197075 96.066406 36.261719 C 96.183933 36.226492 96.282961 36.255583 96.365234 36.349609 C 96.459274 36.431863 96.529172 36.466811 96.576172 36.455078 C 96.646705 36.419818 96.664173 36.367395 96.628906 36.296875 C 96.581893 36.220465 96.511994 36.179711 96.417969 36.173828 z M 94.867188 36.208984 C 94.64388 36.244244 94.53125 36.333569 94.53125 36.474609 C 94.53125 36.545076 94.560341 36.574233 94.619141 36.5625 C 94.666167 36.5625 94.714719 36.508117 94.761719 36.402344 C 94.820485 36.28479 94.913689 36.220718 95.042969 36.208984 L 94.867188 36.208984 z M 100.71875 38.359375 C 100.73048 38.359375 100.75575 38.382686 100.79102 38.429688 C 100.82628 38.464941 100.85537 38.501843 100.87891 38.537109 C 100.91418 38.572403 100.95495 38.619001 101.00195 38.677734 C 101.06069 38.736488 101.11893 38.783093 101.17773 38.818359 C 101.24825 38.865346 101.33175 38.900295 101.42578 38.923828 C 101.53157 38.935561 101.6073 38.964719 101.6543 39.011719 C 101.71303 39.046979 101.75381 39.113005 101.77734 39.207031 C 101.80086 39.336311 101.77755 39.452814 101.70703 39.558594 C 101.64827 39.664347 101.56672 39.710952 101.46094 39.699219 C 101.24938 39.652212 101.02026 39.47163 100.77344 39.154297 C 100.52662 38.82521 100.48389 38.565006 100.64844 38.376953 C 100.6837 38.353486 100.70702 38.347642 100.71875 38.359375 z M 90.388672 43.984375 C 90.412205 43.996175 90.429673 44.007798 90.441406 44.019531 C 90.45314 44.031265 90.458984 44.048732 90.458984 44.072266 L 90.458984 44.125 C 90.458984 44.136733 90.45314 44.160047 90.441406 44.195312 C 90.441406 44.218779 90.435561 44.242092 90.423828 44.265625 C 90.412028 44.289145 90.400405 44.324094 90.388672 44.371094 C 90.376872 44.4181 90.365249 44.458874 90.353516 44.494141 C 90.306509 44.611674 90.23078 44.71848 90.125 44.8125 C 90.03096 44.906507 89.959109 44.94728 89.912109 44.935547 C 89.841576 44.91204 89.84742 44.842143 89.929688 44.724609 C 90.011954 44.630623 90.072155 44.552941 90.107422 44.494141 C 90.142689 44.435374 90.171779 44.359652 90.195312 44.265625 C 90.23058 44.159838 90.25967 44.084109 90.283203 44.037109 C 90.306716 43.990109 90.341672 43.972642 90.388672 43.984375 z M 40.738281 46.699219 L 40.738281 56.517578 L 52.761719 58.175781 L 52.761719 46.699219 L 40.738281 46.699219 z M 54.083984 46.699219 L 54.083984 58.351562 L 70.072266 60.554688 L 70.072266 46.699219 L 54.083984 46.699219 z M 112.83008 73.238281 C 112.11148 73.238281 111.55416 73.465302 111.1582 73.919922 C 110.76713 74.369649 110.56349 74.998107 110.54883 75.804688 L 110.54883 76.720703 L 109.51562 76.720703 L 109.51562 77.769531 L 110.54883 77.769531 L 110.54883 84.654297 L 111.84766 84.654297 L 111.84766 77.769531 L 113.20312 77.769531 L 113.20312 76.720703 L 111.84766 76.720703 L 111.84766 75.972656 C 111.84766 74.921656 112.21499 74.396484 112.95312 74.396484 C 113.16334 74.396484 113.36307 74.418891 113.54883 74.462891 L 113.61328 73.363281 C 113.34931 73.280181 113.08916 73.238281 112.83008 73.238281 z M 65.410156 73.392578 L 65.410156 84.654297 L 66.707031 84.654297 L 66.707031 73.392578 L 65.410156 73.392578 z M 87.847656 73.392578 L 87.847656 84.654297 L 89.144531 84.654297 L 89.144531 73.392578 L 87.847656 73.392578 z M 73.929688 73.832031 C 73.685267 73.832031 73.503066 73.907054 73.380859 74.058594 C 73.258646 74.210127 73.197266 74.397206 73.197266 74.617188 C 73.197266 74.837168 73.258646 75.019369 73.380859 75.166016 C 73.503066 75.312669 73.685267 75.386719 73.929688 75.386719 C 74.178994 75.386719 74.366075 75.312669 74.488281 75.166016 C 74.610495 75.019369 74.669922 74.837167 74.669922 74.617188 C 74.669922 74.402101 74.607569 74.217946 74.480469 74.066406 C 74.358262 73.90998 74.174107 73.832031 73.929688 73.832031 z M 69.148438 74.800781 L 69.148438 76.720703 L 67.939453 76.720703 L 67.939453 77.769531 L 69.148438 77.769531 L 69.148438 82.697266 C 69.148438 83.366972 69.283874 83.885326 69.552734 84.251953 C 69.821594 84.61858 70.213284 84.800781 70.726562 84.800781 C 71.03453 84.800781 71.333646 84.752064 71.626953 84.654297 L 71.642578 83.554688 C 71.466598 83.613354 71.292187 83.642578 71.121094 83.642578 C 70.871787 83.642578 70.696403 83.561711 70.59375 83.400391 C 70.49109 83.239077 70.439453 83.002306 70.439453 82.689453 L 70.439453 77.769531 L 71.634766 77.769531 L 71.634766 76.720703 L 70.439453 76.720703 L 70.439453 74.800781 L 69.148438 74.800781 z M 98.773438 74.800781 L 98.773438 76.720703 L 97.5625 76.720703 L 97.5625 77.769531 L 98.773438 77.769531 L 98.773438 82.697266 C 98.773437 83.366972 98.906921 83.885326 99.175781 84.251953 C 99.444641 84.61858 99.836328 84.800781 100.34961 84.800781 C 100.65758 84.800781 100.95865 84.752064 101.25195 84.654297 L 101.26562 83.554688 C 101.08965 83.613354 100.91719 83.642578 100.74609 83.642578 C 100.49679 83.642578 100.31946 83.561711 100.2168 83.400391 C 100.11414 83.239077 100.0625 83.002306 100.0625 82.689453 L 100.0625 77.769531 L 101.25781 77.769531 L 101.25781 76.720703 L 100.0625 76.720703 L 100.0625 74.800781 L 98.773438 74.800781 z M 49.908203 76.574219 C 49.116283 76.574219 48.478087 76.868471 47.994141 77.455078 L 47.964844 76.720703 L 46.748047 76.720703 L 46.748047 84.654297 L 48.039062 84.654297 L 48.039062 78.708984 C 48.307922 78.053938 48.768788 77.726563 49.423828 77.726562 C 50.303735 77.726562 50.750958 78.275113 50.765625 79.375 L 50.765625 84.654297 L 52.072266 84.654297 L 52.072266 79.337891 C 52.111372 78.868604 52.251674 78.482766 52.496094 78.179688 C 52.740514 77.876608 53.060105 77.726562 53.451172 77.726562 C 53.940012 77.726562 54.286874 77.866864 54.492188 78.150391 C 54.697501 78.429031 54.798828 78.856767 54.798828 79.433594 L 54.798828 84.654297 L 56.089844 84.654297 L 56.089844 79.308594 C 56.055624 77.485227 55.30733 76.574219 53.845703 76.574219 C 52.956023 76.574219 52.262285 76.95909 51.763672 77.726562 C 51.411705 76.95909 50.792996 76.574219 49.908203 76.574219 z M 83.441406 76.574219 C 82.629933 76.574219 82.005374 76.917189 81.570312 77.601562 L 81.503906 76.720703 L 80.332031 76.720703 L 80.332031 87.705078 L 81.621094 87.705078 L 81.621094 83.900391 C 82.051267 84.501657 82.666084 84.800781 83.462891 84.800781 C 84.289024 84.800781 84.927226 84.492886 85.376953 83.876953 C 85.831573 83.26102 86.058594 82.324673 86.058594 81.068359 L 86.058594 80.203125 C 86.043934 78.995698 85.820805 78.090535 85.390625 77.484375 C 84.960445 76.878215 84.311533 76.574219 83.441406 76.574219 z M 93.859375 76.574219 C 93.360762 76.574219 92.90964 76.680425 92.503906 76.890625 C 92.098173 77.100825 91.77469 77.390199 91.535156 77.761719 C 91.29563 78.128345 91.175781 78.514189 91.175781 78.919922 L 92.474609 78.919922 C 92.474609 78.563069 92.595424 78.270769 92.839844 78.041016 C 93.084264 77.806376 93.403855 77.689453 93.794922 77.689453 C 94.225102 77.689453 94.543706 77.789808 94.753906 77.990234 C 94.964106 78.190654 95.070312 78.52778 95.070312 79.001953 L 95.070312 79.845703 L 94.117188 79.845703 C 93.163954 79.855483 92.412728 80.096139 91.865234 80.570312 C 91.317734 81.044487 91.044922 81.685607 91.044922 82.492188 C 91.044922 83.225441 91.245638 83.795439 91.646484 84.201172 C 92.052218 84.602019 92.613438 84.800781 93.332031 84.800781 C 94.045731 84.800781 94.63229 84.463656 95.091797 83.789062 C 95.126017 84.194796 95.181552 84.483204 95.259766 84.654297 L 96.609375 84.654297 L 96.609375 84.537109 C 96.447842 84.087383 96.365995 83.558312 96.361328 82.947266 L 96.361328 78.943359 C 96.351548 78.170999 96.132318 77.58444 95.707031 77.183594 C 95.286631 76.777854 94.670848 76.574219 93.859375 76.574219 z M 105.47461 76.574219 C 104.97599 76.574219 104.52487 76.680425 104.11914 76.890625 C 103.71341 77.100825 103.38992 77.390199 103.15039 77.761719 C 102.91086 78.128345 102.79102 78.514189 102.79102 78.919922 L 104.08984 78.919922 C 104.08984 78.563069 104.21066 78.270769 104.45508 78.041016 C 104.6995 77.806376 105.01714 77.689453 105.4082 77.689453 C 105.83838 77.689453 106.15894 77.789808 106.36914 77.990234 C 106.57934 78.190654 106.68555 78.52778 106.68555 79.001953 L 106.68555 79.845703 L 105.73047 79.845703 C 104.77724 79.855483 104.02797 80.096139 103.48047 80.570312 C 102.93297 81.044487 102.6582 81.685607 102.6582 82.492188 C 102.6582 83.225441 102.85892 83.795439 103.25977 84.201172 C 103.66551 84.602019 104.22868 84.800781 104.94727 84.800781 C 105.66097 84.800781 106.24752 84.463656 106.70703 83.789062 C 106.74124 84.194796 106.79679 84.483204 106.875 84.654297 L 108.22461 84.654297 L 108.22461 84.537109 C 108.06307 84.087383 107.97928 83.558312 107.97461 82.947266 L 107.97461 78.943359 C 107.96483 78.170999 107.74755 77.58444 107.32227 77.183594 C 106.90187 76.777854 106.28608 76.574219 105.47461 76.574219 z M 117.51562 76.574219 C 116.59661 76.574219 115.85514 76.911338 115.29297 77.585938 C 114.7357 78.255644 114.45703 79.168612 114.45703 80.322266 L 114.45703 81.1875 C 114.47658 82.29716 114.76207 83.176019 115.31445 83.826172 C 115.87173 84.476325 116.61028 84.800781 117.5293 84.800781 C 118.45809 84.800781 119.20054 84.466582 119.75781 83.796875 C 120.31509 83.127168 120.59375 82.217126 120.59375 81.068359 L 120.59375 80.232422 C 120.57908 79.103209 120.29068 78.211681 119.72852 77.556641 C 119.17124 76.901594 118.43465 76.574219 117.51562 76.574219 z M 125.02344 76.574219 C 124.38795 76.574219 123.89591 76.89185 123.54883 77.527344 L 123.52734 76.720703 L 122.26562 76.720703 L 122.26562 84.654297 L 123.56445 84.654297 L 123.56445 78.980469 C 123.82843 78.252102 124.29221 77.886719 124.95703 77.886719 C 125.16654 77.886719 125.3626 77.903525 125.54297 77.9375 L 125.53711 76.677734 C 125.40024 76.609294 125.22875 76.574219 125.02344 76.574219 z M 130.00977 76.574219 C 129.21785 76.574219 128.57965 76.868471 128.0957 77.455078 L 128.06641 76.720703 L 126.84961 76.720703 L 126.84961 84.654297 L 128.14062 84.654297 L 128.14062 78.708984 C 128.40949 78.053938 128.87035 77.726563 129.52539 77.726562 C 130.4053 77.726562 130.85252 78.275113 130.86719 79.375 L 130.86719 84.654297 L 132.17188 84.654297 L 132.17188 79.337891 C 132.21098 78.868604 132.35324 78.482766 132.59766 78.179688 C 132.84208 77.876608 133.15971 77.726562 133.55078 77.726562 C 134.03962 77.726562 134.38648 77.866864 134.5918 78.150391 C 134.7971 78.429031 134.90039 78.856767 134.90039 79.433594 L 134.90039 84.654297 L 136.19141 84.654297 L 136.19141 79.308594 C 136.15719 77.485227 135.40889 76.574219 133.94727 76.574219 C 133.05759 76.574219 132.36385 76.95909 131.86523 77.726562 C 131.51327 76.95909 130.89456 76.574219 130.00977 76.574219 z M 140.81836 76.574219 C 140.31974 76.574219 139.86667 76.680425 139.46094 76.890625 C 139.0552 77.100825 138.73367 77.390199 138.49414 77.761719 C 138.25461 78.128345 138.13477 78.514189 138.13477 78.919922 L 139.43164 78.919922 C 139.43164 78.563069 139.55441 78.270769 139.79883 78.041016 C 140.04325 77.806376 140.36089 77.689453 140.75195 77.689453 C 141.18213 77.689453 141.50269 77.789808 141.71289 77.990234 C 141.92309 78.190654 142.02734 78.52778 142.02734 79.001953 L 142.02734 79.845703 L 141.07422 79.845703 C 140.12099 79.855483 139.37172 80.096139 138.82422 80.570312 C 138.27672 81.044487 138.00195 81.685607 138.00195 82.492188 C 138.00195 83.225441 138.20267 83.795439 138.60352 84.201172 C 139.00926 84.602019 139.57048 84.800781 140.28906 84.800781 C 141.00276 84.800781 141.58931 84.463656 142.04883 83.789062 C 142.08304 84.194796 142.14054 84.483204 142.21875 84.654297 L 143.56836 84.654297 L 143.56836 84.537109 C 143.40683 84.087383 143.32303 83.558312 143.31836 82.947266 L 143.31836 78.943359 C 143.30858 78.170999 143.0913 77.58444 142.66602 77.183594 C 142.24562 76.777854 141.62983 76.574219 140.81836 76.574219 z M 58.011719 76.720703 L 58.011719 81.890625 C 58.016605 82.838965 58.201733 83.561927 58.568359 84.060547 C 58.934986 84.554267 59.47672 84.800781 60.195312 84.800781 C 61.021446 84.800781 61.649898 84.521144 62.080078 83.958984 L 62.109375 84.654297 L 63.341797 84.654297 L 63.341797 76.720703 L 62.044922 76.720703 L 62.044922 82.59375 C 61.746735 83.297677 61.203042 83.650391 60.416016 83.650391 C 59.672982 83.650391 59.300781 83.031682 59.300781 81.794922 L 59.300781 76.720703 L 58.011719 76.720703 z M 73.269531 76.720703 L 73.269531 84.654297 L 74.568359 84.654297 L 74.568359 76.720703 L 73.269531 76.720703 z M 117.51562 77.689453 C 118.05823 77.689453 118.48987 77.926217 118.8125 78.400391 C 119.13513 78.869677 119.29687 79.510799 119.29688 80.322266 L 119.29688 81.216797 C 119.26264 82.86907 118.67318 83.695313 117.5293 83.695312 C 116.98669 83.695312 116.55506 83.462447 116.23242 82.998047 C 115.91468 82.528767 115.75586 81.884719 115.75586 81.068359 L 115.75586 80.314453 C 115.75586 79.507873 115.91468 78.869677 116.23242 78.400391 C 116.55506 77.926217 116.9828 77.689453 117.51562 77.689453 z M 83.037109 77.726562 C 83.643269 77.726562 84.083675 77.937988 84.357422 78.363281 C 84.631169 78.783681 84.767578 79.438445 84.767578 80.328125 L 84.767578 81.121094 C 84.762691 81.99122 84.620437 82.63916 84.341797 83.064453 C 84.06805 83.484853 83.639341 83.695312 83.052734 83.695312 C 82.417248 83.695312 81.938834 83.391316 81.621094 82.785156 L 81.621094 78.65625 C 81.94372 78.035423 82.416283 77.726562 83.037109 77.726562 z M 75.976562 79.566406 L 75.976562 80.673828 L 79.003906 80.673828 L 79.003906 79.566406 L 75.976562 79.566406 z M 94.335938 80.804688 L 95.070312 80.804688 L 95.070312 82.697266 C 94.938327 82.961239 94.727866 83.181442 94.439453 83.357422 C 94.151033 83.533402 93.847037 83.621094 93.529297 83.621094 C 93.099117 83.621094 92.794148 83.520732 92.613281 83.320312 C 92.432408 83.114999 92.341797 82.787624 92.341797 82.337891 C 92.341797 81.858831 92.5201 81.48663 92.876953 81.222656 C 93.233806 80.953823 93.720003 80.814487 94.335938 80.804688 z M 105.95117 80.804688 L 106.68555 80.804688 L 106.68555 82.697266 C 106.55356 82.961239 106.3431 83.181442 106.05469 83.357422 C 105.76627 83.533402 105.46228 83.621094 105.14453 83.621094 C 104.71436 83.621094 104.40939 83.520732 104.22852 83.320312 C 104.04765 83.114999 103.95703 82.787624 103.95703 82.337891 C 103.95703 81.858831 104.13534 81.48663 104.49219 81.222656 C 104.84904 80.953823 105.33524 80.814487 105.95117 80.804688 z M 141.29492 80.804688 L 142.02734 80.804688 L 142.02734 82.697266 C 141.89536 82.961239 141.6849 83.181442 141.39648 83.357422 C 141.10807 83.533402 140.80603 83.621094 140.48828 83.621094 C 140.05811 83.621094 139.75119 83.520732 139.57031 83.320312 C 139.38945 83.114999 139.30078 82.787624 139.30078 82.337891 C 139.30078 81.858831 139.47909 81.48663 139.83594 81.222656 C 140.19279 80.953823 140.67899 80.814487 141.29492 80.804688 z "
       transform="translate(624.8592,561.17542)"
       id="path4152" />
    <path
       style="color:#000000;clip-rule:nonzero;display:inline;overflow:visible;visibility:visible;opacity:1;isolation:auto;mix-blend-mode:normal;color-interpolation:sRGB;color-interpolation-filters:linearRGB;solid-color:#000000;solid-opacity:1;fill:#424854;fill-opacity:1;fill-rule:nonzero;stroke:none;stroke-width:2;stroke-linecap:butt;stroke-linejoin:miter;stroke-miterlimit:4;stroke-dasharray:none;stroke-dashoffset:0;stroke-opacity:1;marker:none;color-rendering:auto;image-rendering:auto;shape-rendering:auto;text-rendering:auto;enable-background:accumulate"
       d="M 23.720703 0 C 22.356283 0 21.257812 1.0984706 21.257812 2.4628906 L 21.257812 99.681641 C 21.257812 100.64311 21.809777 101.46311 22.609375 101.86914 L 3.8886719 101.86914 C 1.7343119 101.86914 0 103.60346 0 105.75781 C 0 107.91216 1.7343119 109.64648 3.8886719 109.64648 L 186.14062 109.64648 C 188.29498 109.64648 190.0293 107.91216 190.0293 105.75781 C 190.0293 103.60346 188.29498 101.86914 186.14062 101.86914 L 167.41992 101.86914 C 168.21952 101.46311 168.77148 100.64311 168.77148 99.681641 L 168.77148 2.4628906 C 168.77148 1.0984706 167.67301 0 166.30859 0 L 23.720703 0 z M 27.740234 5.9628906 L 162.28906 5.9628906 L 162.28906 96.181641 L 27.740234 96.181641 L 27.740234 5.9628906 z M 85.292969 103.42383 L 104.73633 103.42383 C 105.56216 103.42383 106.22656 104.09016 106.22656 104.91602 C 106.22656 105.74183 105.56216 106.40625 104.73633 106.40625 L 85.292969 106.40625 C 84.467139 106.40625 83.802734 105.74183 83.802734 104.91602 C 83.802734 104.09016 84.467139 103.42383 85.292969 103.42383 z "
       id="rect4179"
       transform="translate(624.8592,561.17542)" />
  </g>
</svg>
