<?xml version="1.0" encoding="UTF-8" standalone="no"?>
<!-- Created with Inkscape (http://www.inkscape.org/) -->

<svg
   xmlns:dc="http://purl.org/dc/elements/1.1/"
   xmlns:cc="http://creativecommons.org/ns#"
   xmlns:rdf="http://www.w3.org/1999/02/22-rdf-syntax-ns#"
   xmlns:svg="http://www.w3.org/2000/svg"
   xmlns="http://www.w3.org/2000/svg"
   xmlns:sodipodi="http://sodipodi.sourceforge.net/DTD/sodipodi-0.dtd"
   xmlns:inkscape="http://www.inkscape.org/namespaces/inkscape"
   width="190.02901"
   height="109.64632"
   id="svg8417"
   version="1.1"
   inkscape:version="0.91 r13725"
   sodipodi:docname="multiplataforma_editable.svg">
  <defs
     id="defs8419" />
  <sodipodi:namedview
     id="base"
     pagecolor="#ffffff"
     bordercolor="#666666"
     borderopacity="1.0"
     inkscape:pageopacity="0.0"
     inkscape:pageshadow="2"
     inkscape:zoom="1"
     inkscape:cx="194.88272"
     inkscape:cy="5.5898069"
     inkscape:document-units="px"
     inkscape:current-layer="layer1"
     showgrid="false"
     fit-margin-top="0"
     fit-margin-left="0"
     fit-margin-right="0"
     fit-margin-bottom="0"
     inkscape:window-width="1680"
     inkscape:window-height="986"
     inkscape:window-x="0"
     inkscape:window-y="27"
     inkscape:window-maximized="1" />
  <metadata
     id="metadata8422">
    <rdf:RDF>
      <cc:Work
         rdf:about="">
        <dc:format>image/svg+xml</dc:format>
        <dc:type
           rdf:resource="http://purl.org/dc/dcmitype/StillImage" />
        <dc:title></dc:title>
      </cc:Work>
    </rdf:RDF>
  </metadata>
  <g
     inkscape:label="Capa 1"
     inkscape:groupmode="layer"
     id="layer1"
     transform="translate(-624.8592,-561.17542)">
    <g
       id="g4193"
       transform="matrix(0.73203607,0,0,0.73203607,137.52648,236.62471)"
       style="fill:#78a7b7" />
    <g
       id="g4203"
       transform="translate(212.13203,-288.49957)">
      <text
         xml:space="preserve"
         style="font-style:normal;font-weight:normal;font-size:43.15670776px;line-height:125%;font-family:sans-serif;letter-spacing:3.75000978px;word-spacing:-0.11px;fill:#78a7b7;fill-opacity:1;stroke:none;stroke-width:1px;stroke-linecap:butt;stroke-linejoin:miter;stroke-opacity:1"
         x="431.58829"
         y="914.01611"
         id="text4137"
         sodipodi:linespacing="125%"
         transform="matrix(0.73203607,0,0,0.73203607,137.52648,236.62471)"><tspan
           sodipodi:role="line"
           id="tspan4139"
           x="431.58829"
           y="914.01611"
           style="fill:#78a7b7;fill-opacity:1">  </tspan></text>
      <text
         xml:space="preserve"
         style="font-style:normal;font-variant:normal;font-weight:normal;font-stretch:normal;font-size:15.01707935px;line-height:125%;font-family:'Roboto Condensed';-inkscape-font-specification:'Roboto Condensed, ';text-align:center;letter-spacing:0px;word-spacing:0px;text-anchor:middle;fill:#78a7b7;fill-opacity:1;stroke:none;stroke-width:1px;stroke-linecap:butt;stroke-linejoin:miter;stroke-opacity:1"
         x="507.78973"
         y="934.3299"
         id="text4160"
         sodipodi:linespacing="125%"><tspan
           sodipodi:role="line"
           id="tspan4162"
           x="507.78973"
           y="934.3299">multi-plataforma</tspan></text>
      <g
         style="fill:#424854"
         transform="matrix(0.51849661,0,0,0.51849661,153.81913,282.86098)"
         id="g4189">
        <path
           style="color:#000000;clip-rule:nonzero;display:inline;overflow:visible;visibility:visible;opacity:1;isolation:auto;mix-blend-mode:normal;color-interpolation:sRGB;color-interpolation-filters:linearRGB;solid-color:#000000;solid-opacity:1;fill:#424854;fill-opacity:1;fill-rule:nonzero;stroke:none;stroke-width:2;stroke-linecap:butt;stroke-linejoin:miter;stroke-miterlimit:4;stroke-dasharray:none;stroke-dashoffset:0;stroke-opacity:1;marker:none;color-rendering:auto;image-rendering:auto;shape-rendering:auto;text-rendering:auto;enable-background:accumulate"
           d="m 545.09375,1093.1875 c -2.6315,0 -4.75,2.1185 -4.75,4.75 l 0,187.5 c 0,2.6315 2.1185,4.75 4.75,4.75 l 275,0 c 2.6315,0 4.75,-2.1185 4.75,-4.75 l 0,-187.5 c 0,-2.6315 -2.1185,-4.75 -4.75,-4.75 l -275,0 z m 7.75,11.5 259.5,0 0,174 -259.5,0 0,-174 z"
           id="rect4179"
           inkscape:connector-curvature="0" />
        <path
           style="color:#000000;clip-rule:nonzero;display:inline;overflow:visible;visibility:visible;opacity:1;isolation:auto;mix-blend-mode:normal;color-interpolation:sRGB;color-interpolation-filters:linearRGB;solid-color:#000000;solid-opacity:1;fill:#424854;fill-opacity:1;fill-rule:nonzero;stroke:none;stroke-width:2;stroke-linecap:butt;stroke-linejoin:miter;stroke-miterlimit:4;stroke-dasharray:none;stroke-dashoffset:0;stroke-opacity:1;marker:none;color-rendering:auto;image-rendering:auto;shape-rendering:auto;text-rendering:auto;enable-background:accumulate"
           d="m 506.84375,1289.6572 c -4.155,0 -7.5,3.345 -7.5,7.5 0,4.155 3.345,7.5 7.5,7.5 l 351.5,0 c 4.155,0 7.5,-3.345 7.5,-7.5 0,-4.155 -3.345,-7.5 -7.5,-7.5 l -351.5,0 z m 157,3 37.5,0 c 1.59275,0 2.875,1.2822 2.875,2.875 0,1.5927 -1.28225,2.875 -2.875,2.875 l -37.5,0 c -1.59275,0 -2.875,-1.2823 -2.875,-2.875 0,-1.5928 1.28225,-2.875 2.875,-2.875 z"
           id="rect4184"
           inkscape:connector-curvature="0" />
      </g>
    </g>
  </g>
</svg>
