<?xml version="1.0" encoding="UTF-8" standalone="no"?>
<!-- Created with Inkscape (http://www.inkscape.org/) -->

<svg
   xmlns:dc="http://purl.org/dc/elements/1.1/"
   xmlns:cc="http://creativecommons.org/ns#"
   xmlns:rdf="http://www.w3.org/1999/02/22-rdf-syntax-ns#"
   xmlns:svg="http://www.w3.org/2000/svg"
   xmlns="http://www.w3.org/2000/svg"
   xmlns:sodipodi="http://sodipodi.sourceforge.net/DTD/sodipodi-0.dtd"
   xmlns:inkscape="http://www.inkscape.org/namespaces/inkscape"
   width="128"
   height="109.21875"
   id="svg8417"
   version="1.1"
   inkscape:version="0.48.4 r9939"
   sodipodi:docname="Nuevo documento 72">
  <defs
     id="defs8419" />
  <sodipodi:namedview
     id="base"
     pagecolor="#ffffff"
     bordercolor="#666666"
     borderopacity="1.0"
     inkscape:pageopacity="0.0"
     inkscape:pageshadow="2"
     inkscape:zoom="0.98994949"
     inkscape:cx="291.12744"
     inkscape:cy="52.874913"
     inkscape:document-units="px"
     inkscape:current-layer="layer1"
     showgrid="false"
     fit-margin-top="0"
     fit-margin-left="0"
     fit-margin-right="0"
     fit-margin-bottom="0"
     inkscape:window-width="1680"
     inkscape:window-height="1026"
     inkscape:window-x="0"
     inkscape:window-y="24"
     inkscape:window-maximized="1" />
  <metadata
     id="metadata8422">
    <rdf:RDF>
      <cc:Work
         rdf:about="">
        <dc:format>image/svg+xml</dc:format>
        <dc:type
           rdf:resource="http://purl.org/dc/dcmitype/StillImage" />
        <dc:title></dc:title>
      </cc:Work>
    </rdf:RDF>
  </metadata>
  <g
     inkscape:label="Capa 1"
     inkscape:groupmode="layer"
     id="layer1"
     transform="translate(-518.84375,-463.46875)">
    <g
       id="g8499">
      <path
         style="fill:#40aa54;stroke:#20552a;stroke-width:2.42738509;stroke-linejoin:round"
         inkscape:connector-curvature="0"
         d="m 582.10427,464.68122 c -21.69049,0 -39.27409,17.58361 -39.27409,39.27434 0,16.83595 10.59681,31.19261 25.4828,36.77701 l 9.05054,-24.13494 c -5.11695,-1.91938 -8.75968,-6.85475 -8.75968,-12.64207 0,-7.45615 6.04452,-13.50067 13.50043,-13.50067 7.45615,0 13.50091,6.04452 13.50091,13.50067 0,5.78732 -3.64298,10.72269 -8.75992,12.64207 l 9.05054,24.13494 c 14.88575,-5.5844 25.48281,-19.94106 25.48281,-36.77701 0,-21.69073 -17.58337,-39.27434 -39.27434,-39.27434 z"
         id="path7056" />
      <path
         id="path7058"
         d="m 626.15625,529.53125 -2.1875,8.78125 1.375,0 1,-4.125 c 0.0555,-0.21239 0.0975,-0.43109 0.125,-0.625 0.0275,-0.19343 0.0585,-0.38804 0.0625,-0.5625 0.0555,0.17019 0.1131,0.35394 0.1875,0.53125 0.0749,0.17636 0.17885,0.37475 0.28125,0.5625 l 2.4375,4.5625 2.4375,-4.46875 c 0.10668,-0.1996 0.21105,-0.40269 0.28125,-0.59375 0.0702,-0.19201 0.11785,-0.40222 0.15625,-0.59375 0.0251,0.16167 0.0597,0.38226 0.0937,0.625 0.0379,0.29868 0.0771,0.46725 0.0937,0.53125 l 1.03125,4.15625 1.40625,0 -2.28125,-8.78125 -2.6875,5.3125 c -0.0256,0.0507 -0.0733,0.1476 -0.125,0.25 -0.19154,0.37169 -0.31715,0.66351 -0.40625,0.90625 -0.12374,-0.28967 -0.2248,-0.52485 -0.3125,-0.71875 -0.0872,-0.19391 -0.1448,-0.32095 -0.1875,-0.40625 l -2.78125,-5.34375 z m -9.59375,0.375 0,1.15625 2.46875,0 0,7.25 1.53125,0 0,-7.25 2.46875,0 0,-1.15625 -6.46875,0 z"
         style="fill:#20552a"
         inkscape:connector-curvature="0" />
      <path
         id="path7062"
         d="m 524.09375,550.28125 c -3.19471,0.25677 -5.25,2.433 -5.25,5.5625 l 0,4.25 c 0,3.33813 2.33889,5.5625 5.90625,5.5625 3.56736,0 5.875,-2.22437 5.875,-5.5625 l 0,-4.25 c 0,-3.30589 -2.30764,-5.5625 -5.875,-5.5625 -0.22296,0 -0.44327,-0.0171 -0.65625,0 z m 26.4375,0 c -2.98449,0.29503 -5.28125,2.7708 -5.28125,5.5625 l 0,4.25 c 0,3.33813 2.3074,5.5625 5.875,5.5625 1.73449,0 3.11189,-0.45904 4.09375,-1.375 0.98162,-0.91643 1.375,-1.77101 1.375,-2 0,-0.0981 -0.0564,-0.15333 -0.1875,-0.21875 L 554.34375,561 c -0.0647,-0.0327 -0.15356,-0.0625 -0.21875,-0.0625 -0.19651,0 -0.46735,0.52352 -1.1875,1.375 -0.36008,0.4248 -1.02716,0.71875 -1.8125,0.71875 -1.6693,0 -2.9375,-1.3341 -2.9375,-2.9375 l 0,-1.3125 c 0,-0.22899 0.0833,-0.34375 0.3125,-0.34375 l 8.1875,0 c 0.22899,0 0.34375,-0.0835 0.34375,-0.3125 l 0,-2.28125 c 0,-2.97781 -2.63402,-5.5625 -5.90625,-5.5625 -0.20456,0 -0.39478,-0.0197 -0.59375,0 z m 30.78125,0.25 c -3.04348,0 -5.0625,1.84785 -5.0625,4.53125 0,2.88062 2.07913,3.27644 5.875,4.0625 2.19318,0.45797 3.21875,1.1954 3.21875,2.40625 0,1.34217 -1.19815,2.375 -3.03125,2.375 l -1,0 c -1.6034,0 -2.27424,-0.86383 -3.125,-1.8125 -0.0979,-0.0986 -0.1519,-0.1875 -0.25,-0.1875 -0.033,0 -0.0906,-0.002 -0.15625,0.0312 l -1.28125,0.625 c -0.1636,0.0659 -0.25,0.1523 -0.25,0.25 0,1.01457 2.01902,2.84375 5.0625,2.84375 l 1,0 c 3.17432,0 5.21875,-1.93722 5.21875,-4.71875 0,-2.7493 -2.11113,-3.2442 -5.875,-4.0625 -2.25813,-0.49069 -3.28125,-1.0958 -3.28125,-2.4375 0,-1.34169 1.03968,-2.1875 2.9375,-2.1875 l 1,0 c 1.47326,0 2.24029,0.79987 3.15625,1.78125 0.0991,0.0986 0.1519,0.15625 0.25,0.15625 0.0331,0 0.0605,0.002 0.125,-0.0312 l 1.25,-0.625 c 0.13089,-0.0659 0.21875,-0.12065 0.21875,-0.21875 0,-0.98187 -2.02148,-2.78125 -5,-2.78125 l -1,0 z m 13.28125,0 c -3.46993,0 -5.65625,2.10328 -5.65625,5.34375 l 0,4.40625 c 0,3.24094 2.18632,5.375 5.65625,5.375 3.46898,0 5.71875,-2.16725 5.71875,-5.375 l 0,-4.40625 c 0,-3.17504 -2.24977,-5.34375 -5.71875,-5.34375 z m 34.625,0 c -3.46945,0 -5.65625,2.10328 -5.65625,5.34375 l 0,4.40625 c 0,3.24094 2.1868,5.375 5.65625,5.375 3.07595,0 5.0625,-1.82819 5.0625,-2.875 0,-0.13085 -0.0239,-0.21585 -0.1875,-0.28125 l -1.375,-0.6875 c -0.0654,-0.0327 -0.12355,-0.0312 -0.15625,-0.0312 -0.19628,0 -0.50053,0.47074 -1.1875,1.125 -0.5893,0.55706 -1.37067,0.875 -2.15625,0.875 -1.96372,0 -3.46875,-1.60123 -3.46875,-3.5 l 0,-4.40625 c 0,-1.931 1.47184,-3.46875 3.46875,-3.46875 1.47255,0 2.11189,0.86435 3.09375,1.78125 0.0981,0.0977 0.18355,0.125 0.28125,0.125 0.0332,0 0.0596,10e-4 0.125,-0.0312 l 1.375,-0.6875 c 0.13039,-0.0654 0.21875,-0.1523 0.21875,-0.25 0,-1.07952 -2.05051,-2.8125 -5.09375,-2.8125 z m 11.90625,0 c -1.66883,0 -3.04453,0.57285 -4.125,1.71875 -0.98138,1.04729 -1.53125,2.41415 -1.53125,3.625 l 0,4.40625 c 0,3.24094 2.18774,5.375 5.65625,5.375 3.0769,0 5.0625,-1.82819 5.0625,-2.875 0,-0.13085 -0.0239,-0.21583 -0.1875,-0.28125 l -1.375,-0.6875 c -0.065,-0.0327 -0.12306,-0.0312 -0.15625,-0.0312 -0.19627,0 -0.49958,0.47075 -1.1875,1.125 -0.58835,0.55706 -1.37067,0.875 -2.15625,0.875 -1.96324,0 -3.46875,-1.60123 -3.46875,-3.5 l 0,-1.78125 c 0,-0.22899 0.11432,-0.3125 0.34375,-0.3125 l 8.53125,0 c 0.22899,0 0.3125,-0.0835 0.3125,-0.3125 l 0,-2 c 0,-2.81472 -2.54419,-5.34375 -5.71875,-5.34375 z m -108.53125,0.0625 c -0.22899,0 -0.3125,0.0835 -0.3125,0.3125 l 0,21.4375 c 0,0.22946 0.0835,0.34375 0.3125,0.34375 l 2.3125,0 c 0.22947,0 0.3125,-0.11428 0.3125,-0.34375 l 0,-7.75 c 0,-0.22946 0.0864,-0.34375 0.25,-0.34375 0.29465,0 1.28944,1.0625 3.1875,1.0625 3.04395,0 5.40625,-2.35475 5.40625,-5.5625 l 0,-3.59375 c 0,-3.30541 -2.35059,-5.5625 -5.65625,-5.5625 -1.93076,0 -2.85598,1.09375 -3.28125,1.09375 -0.13109,0 -0.21875,-0.14601 -0.21875,-0.375 l 0,-0.40625 c 0,-0.22899 -0.11473,-0.3125 -0.34375,-0.3125 l -1.96875,0 z m 26.15625,0 c -0.2292,0 -0.3125,0.0835 -0.3125,0.3125 l 0,14.09375 c 0,0.22903 0.0833,0.3125 0.3125,0.3125 l 2.28125,0 c 0.22899,0 0.34375,-0.0835 0.34375,-0.3125 l 0,-8.84375 c 0,-1.60435 1.30115,-2.9375 2.9375,-2.9375 1.66907,0 2.9375,1.33315 2.9375,2.9375 l 0,8.84375 c 0,0.22903 0.11476,0.3125 0.34375,0.3125 l 2.28125,0 c 0.229,0 0.34375,-0.0835 0.34375,-0.3125 l 0,-8.84375 c 0,-3.30541 -2.38161,-5.5625 -5.6875,-5.5625 -1.931,0 -2.82497,1.09375 -3.25,1.09375 -0.13109,0 -0.25,-0.14601 -0.25,-0.375 l 0,-0.40625 c 0,-0.22897 -0.0833,-0.3125 -0.3125,-0.3125 l -1.96875,0 z m 43.59375,0.25 c -0.229,0 -0.3125,0.11476 -0.3125,0.34375 l 0,8.78125 c 0,3.17456 2.33421,5.34375 5.3125,5.34375 1.08,0 2.06402,-0.34769 2.71875,-0.96875 0.58931,-0.58931 0.92433,-1.125 1.21875,-1.125 0.13132,0 0.25,0.14601 0.25,0.375 l 0,1.40625 c 0,0.22903 0.11476,0.3125 0.34375,0.3125 l 1.21875,0 c 0.22903,0 0.3125,-0.0835 0.3125,-0.3125 l 0,-13.8125 c 0,-0.22903 -0.0835,-0.34375 -0.3125,-0.34375 l -1.5625,0 c -0.22895,0 -0.3125,0.11476 -0.3125,0.34375 l 0,8.78125 c 0,1.931 -1.50258,3.5 -3.53125,3.5 -1.93101,0 -3.46875,-1.60171 -3.46875,-3.5 l 0,-8.78125 c 0,-0.22903 -0.11428,-0.34375 -0.34375,-0.34375 l -1.53125,0 z m 14.375,0 c -0.22895,0 -0.34375,0.11476 -0.34375,0.34375 l 0,13.8125 c 0,0.22903 0.11476,0.3125 0.34375,0.3125 l 1.5625,0 c 0.22942,0 0.34375,-0.0835 0.34375,-0.3125 l 0,-8.46875 c 0,-1.93101 1.47279,-3.4375 3.46875,-3.4375 0.55659,0 0.95753,0.0937 1.21875,0.0937 0.229,0 0.3125,-0.0825 0.3125,-0.34375 l 0,-1.65625 c 0,-0.22903 -0.11429,-0.34375 -0.34375,-0.34375 l -1.1875,0 c -0.45846,0 -1.1714,0.26808 -1.53125,0.5625 -1.17813,0.94914 -1.70361,1.78125 -2.0625,1.78125 -0.13133,0 -0.25,-0.14601 -0.25,-0.375 l 0,-1.625 c 0,-0.22903 -0.0835,-0.34375 -0.3125,-0.34375 l -1.21875,0 z m -22.125,1.5625 c 1.96277,0 3.5,1.60317 3.5,3.46875 l 0,4.40625 c 0,1.89877 -1.53723,3.5 -3.5,3.5 -1.96372,0 -3.46875,-1.60123 -3.46875,-3.5 l 0,-4.40625 c 0,-1.931 1.47185,-3.46875 3.46875,-3.46875 z m 46.53125,0 c 1.96419,0 3.5,1.60317 3.5,3.46875 l 0,0.4375 c 0,0.22899 -0.0831,0.34375 -0.3125,0.34375 l -6.3125,0 c -0.22946,0 -0.34375,-0.11475 -0.34375,-0.34375 l 0,-0.4375 c 0,-1.931 1.47279,-3.46875 3.46875,-3.46875 z M 524.75,552.875 c 1.63635,0 2.9375,1.36535 2.9375,2.96875 l 0,4.25 c 0,1.6034 -1.30115,2.9375 -2.9375,2.9375 -1.66906,0 -2.9375,-1.3341 -2.9375,-2.9375 l 0,-4.25 c 0,-1.6034 1.30091,-2.96875 2.9375,-2.96875 z m 26.375,0 c 1.53797,0 2.9375,1.3121 2.9375,2.71875 0,0.39303 -0.0174,0.5625 -0.3125,0.5625 l -5.25,0 c -0.29465,0 -0.3125,-0.13969 -0.3125,-0.5 0,-1.43936 1.3661,-2.78125 2.9375,-2.78125 z m -12.96875,0.34375 c 1.6693,0 2.96875,1.33315 2.96875,2.9375 l 0,3.59375 c 0,1.60387 -1.29945,2.96875 -2.96875,2.96875 -1.63635,0 -2.9375,-1.36488 -2.9375,-2.96875 l 0,-3.59375 c 0,-1.60435 1.30115,-2.9375 2.9375,-2.9375 z"
         inkscape:connector-curvature="0" />
    </g>
  </g>
</svg>
